<svg xmlns="http://www.w3.org/2000/svg" width="20.137" height="17.857" viewBox="0 0 20.137 17.857">
  <g id="Grupo_3592" data-name="Grupo 3592" transform="translate(0 0)">
    <path id="Trazado_8618" data-name="Trazado 8618" d="M19.967,30.25l-1.1-1.1a.581.581,0,0,0-.821,0l-.685.685-.137-.137a.581.581,0,0,0-.821,0l-3.586,3.586H.581A.581.581,0,0,0,0,33.869V46.261a.581.581,0,0,0,.581.581H13.166a.581.581,0,0,0,.581-.581V38.386l5.672-5.672a.581.581,0,0,0,0-.821l-.137-.137.685-.685A.581.581,0,0,0,19.967,30.25Zm-18.8,4.2h10.5L7.645,38.465a.581.581,0,0,0-.159.3l-.4,2.006L6.1,40.3a.581.581,0,0,0-.627.082L3.806,41.8a.077.077,0,0,1-.127-.059v-.5a1.239,1.239,0,0,0-1.888-1.055l-.629.387ZM12.585,45.68H1.162V41.938L2.4,41.176a.077.077,0,0,1,.117.066v.5a1.227,1.227,0,0,0,.719,1.125,1.245,1.245,0,0,0,.523.116,1.23,1.23,0,0,0,.8-.3l1.378-1.174,1.32.631.005,0,.019.009.011,0,.017.007.011,0,.02.007h0l.018,0,.013,0,.016,0,.011,0,.017,0,.017,0,.014,0h.009l.019,0H7.57l.019,0,.01,0,.022,0,2.738-.548a.581.581,0,0,0,.3-.159l1.929-1.929V45.68ZM9.959,40.531l-1.711.342.342-1.711,6.037-6.037L16,34.494Zm6.858-6.858L15.448,32.3l1.369-1.369L18.187,32.3Zm1.643-2.738-.274-.274.274-.274.274.274Z" transform="translate(0 -28.985)" fill="#3f9f82"/>
  </g>
</svg>
