<svg xmlns="http://www.w3.org/2000/svg" width="16.089" height="19.809" viewBox="0 0 16.089 19.809">
  <g id="icon-trash" transform="translate(0.003 0.001)">
    <path id="Trazado_428" data-name="Trazado 428" d="M222.862,154.7a.464.464,0,0,0-.464.464v8.768a.464.464,0,1,0,.928,0v-8.768A.464.464,0,0,0,222.862,154.7Zm0,0" transform="translate(-212.084 -147.528)" fill="#858585"/>
    <path id="Trazado_429" data-name="Trazado 429" d="M104.862,154.7a.464.464,0,0,0-.464.464v8.768a.464.464,0,1,0,.928,0v-8.768A.464.464,0,0,0,104.862,154.7Zm0,0" transform="translate(-99.558 -147.528)" fill="#858585"/>
    <path id="Trazado_430" data-name="Trazado 430" d="M1.314,5.9v11.43a2.559,2.559,0,0,0,.68,1.765,2.285,2.285,0,0,0,1.658.717H12.43a2.284,2.284,0,0,0,1.658-.717,2.559,2.559,0,0,0,.68-1.765V5.9a1.772,1.772,0,0,0-.455-3.485H11.938v-.58A1.822,1.822,0,0,0,10.1,0H5.981A1.822,1.822,0,0,0,4.144,1.831v.58H1.769A1.772,1.772,0,0,0,1.314,5.9ZM12.43,18.88H3.652a1.469,1.469,0,0,1-1.41-1.554V5.937h11.6V17.326A1.469,1.469,0,0,1,12.43,18.88ZM5.072,1.831a.894.894,0,0,1,.909-.9H10.1a.894.894,0,0,1,.909.9v.58H5.072Zm-3.3,1.508H14.313a.835.835,0,1,1,0,1.67H1.769a.835.835,0,1,1,0-1.67Zm0,0" transform="translate(0 0)" fill="#858585"/>
    <path id="Trazado_431" data-name="Trazado 431" d="M163.862,154.7a.464.464,0,0,0-.464.464v8.768a.464.464,0,1,0,.928,0v-8.768A.464.464,0,0,0,163.862,154.7Zm0,0" transform="translate(-155.821 -147.528)" fill="#858585"/>
  </g>
</svg>
