<svg xmlns="http://www.w3.org/2000/svg" width="16.63" height="16.575" viewBox="0 0 16.63 16.575">
  <g id="multimedia-option" transform="translate(0 -0.85)">
    <g id="Grupo_2404" data-name="Grupo 2404" transform="translate(0 0.85)">
      <g id="Grupo_2403" data-name="Grupo 2403">
        <path id="Trazado_7111" data-name="Trazado 7111" d="M8.288,16.044H2.072a.691.691,0,0,1-.691-.691V2.922a.691.691,0,0,1,.691-.691H8.288a.691.691,0,0,0,0-1.381H2.072A2.074,2.074,0,0,0,0,2.922V15.353a2.074,2.074,0,0,0,2.072,2.072H8.288a.691.691,0,1,0,0-1.381Z" transform="translate(0 -0.85)" fill="#3f3f3f"/>
      </g>
    </g>
    <g id="Grupo_2406" data-name="Grupo 2406" transform="translate(5.525 4.303)">
      <g id="Grupo_2405" data-name="Grupo 2405">
        <path id="Trazado_7112" data-name="Trazado 7112" d="M181,111.507l-4.2-4.144a.691.691,0,1,0-.97.983l3,2.961h-8.041a.691.691,0,0,0,0,1.381h8.041l-3,2.961a.691.691,0,1,0,.97.983l4.2-4.144a.69.69,0,0,0,0-.983Z" transform="translate(-170.1 -107.165)" fill="#3f3f3f"/>
      </g>
    </g>
  </g>
</svg>
