<svg xmlns="http://www.w3.org/2000/svg" width="20.78" height="24.43" viewBox="0 0 20.78 24.43">
  <g id="avatar" transform="translate(-36.073)">
    <g id="Grupo_386" data-name="Grupo 386" transform="translate(36.073)">
      <path id="Trazado_369" data-name="Trazado 369" d="M142.273,13.163h.162A4.668,4.668,0,0,0,146,11.62c1.948-2.2,1.624-5.959,1.589-6.319A5.161,5.161,0,0,0,145.136.713,5.625,5.625,0,0,0,142.415,0h-.086a5.633,5.633,0,0,0-2.722.693A5.164,5.164,0,0,0,137.123,5.3c-.035.359-.359,4.123,1.589,6.319A4.649,4.649,0,0,0,142.273,13.163Zm-3.8-7.735c0-.015.005-.03.005-.04.167-3.627,2.742-4.017,3.845-4.017h.061c1.366.03,3.688.587,3.845,4.017a.1.1,0,0,0,.005.04c.005.035.359,3.475-1.25,5.287a3.316,3.316,0,0,1-2.605,1.083h-.051a3.3,3.3,0,0,1-2.6-1.083C138.125,8.914,138.469,5.459,138.474,5.428Z" transform="translate(-131.972)" fill="#3f3f3f"/>
      <path id="Trazado_370" data-name="Trazado 370" d="M56.851,265.535v-.015c0-.04-.005-.081-.005-.126-.03-1-.1-3.344-2.292-4.093l-.051-.015a14.6,14.6,0,0,1-4.2-1.912.683.683,0,0,0-.784,1.118,15.756,15.756,0,0,0,4.619,2.11c1.179.42,1.31,1.68,1.346,2.833a1.016,1.016,0,0,0,.005.126,9.182,9.182,0,0,1-.106,1.563,18.618,18.618,0,0,1-8.919,2.074,18.725,18.725,0,0,1-8.924-2.079,8.692,8.692,0,0,1-.106-1.563c0-.04.005-.081.005-.126.035-1.153.167-2.413,1.346-2.833a15.9,15.9,0,0,0,4.619-2.11.683.683,0,1,0-.784-1.118,14.437,14.437,0,0,1-4.2,1.912l-.051.015c-2.2.754-2.261,3.1-2.292,4.093a1.015,1.015,0,0,1-.005.126v.015a7.758,7.758,0,0,0,.258,2.292.649.649,0,0,0,.263.319,19.135,19.135,0,0,0,9.875,2.418,19.193,19.193,0,0,0,9.875-2.418.677.677,0,0,0,.263-.319A8.139,8.139,0,0,0,56.851,265.535Z" transform="translate(-36.073 -246.129)" fill="#3f3f3f"/>
    </g>
  </g>
</svg>
