<svg xmlns="http://www.w3.org/2000/svg" width="19.819" height="17.902" viewBox="0 0 19.819 17.902"><defs><style>.a{fill:#707070;}</style></defs><g transform="translate(0 -24.8)"><path class="a" d="M17.906,24.8H1.916a1.916,1.916,0,1,0,0,3.833H17.9a1.916,1.916,0,0,0,0-3.833Z"/><path class="a" d="M17.906,206.5H1.916a1.916,1.916,0,0,0,0,3.833H17.9a1.916,1.916,0,0,0,0-3.833Z" transform="translate(0 -174.665)"/><path class="a" d="M17.906,388.1H1.916a1.918,1.918,0,0,0,0,3.837H17.9a1.918,1.918,0,0,0,0-3.837Z" transform="translate(0 -349.234)"/></g></svg>