<?xml version="1.0" standalone="no"?>
<!DOCTYPE svg PUBLIC "-//W3C//DTD SVG 20010904//EN"
 "http://www.w3.org/TR/2001/REC-SVG-20010904/DTD/svg10.dtd">
<svg version="1.0" xmlns="http://www.w3.org/2000/svg"
 width="135.000000pt" height="173.000000pt" viewBox="0 0 135.000000 173.000000"
 preserveAspectRatio="xMidYMid meet">

<g transform="translate(0.000000,173.000000) scale(0.100000,-0.100000)"
fill="#000000" stroke="none">
<path d="M583 1695 c-83 -18 -156 -59 -216 -120 -91 -92 -117 -173 -117 -361
l0 -132 -60 -4 c-64 -5 -98 -22 -134 -72 -20 -27 -21 -39 -21 -446 0 -407 1
-419 21 -446 11 -15 33 -37 48 -48 27 -21 40 -21 554 -24 354 -2 539 0 564 8
20 6 48 24 62 41 l26 31 0 437 c0 430 0 439 -21 465 -27 34 -80 56 -135 56
l-44 0 0 123 c0 134 -14 207 -54 285 -82 158 -289 249 -473 207z m211 -111
c70 -25 143 -90 179 -161 23 -44 38 -155 35 -253 l-3 -85 -329 -3 -329 -2 5
139 c4 132 6 142 37 205 46 94 117 149 221 172 59 13 122 9 184 -12z m404
-620 l22 -15 0 -386 c0 -346 -2 -388 -17 -405 -15 -17 -45 -18 -520 -18 -329
0 -511 4 -524 10 -18 10 -19 25 -19 405 l0 394 22 15 c20 14 86 16 518 16 432
0 498 -2 518 -16z"/>
<path d="M611 783 c-89 -45 -96 -173 -11 -233 30 -21 30 -22 30 -114 0 -100 7
-116 50 -116 43 0 50 16 50 119 0 96 0 96 29 113 42 24 64 72 58 126 -10 94
-119 150 -206 105z m99 -104 c9 -15 8 -24 -1 -35 -18 -21 -57 -18 -64 6 -14
44 44 69 65 29z"/>
</g>
</svg>
