<svg xmlns="http://www.w3.org/2000/svg" width="83.796" height="79.922" viewBox="0 0 83.796 79.922"><defs><style>.a{fill:#151a6a;}.b{fill:#fff;}.c{fill:#9e267c;}</style></defs><g transform="translate(0 -1.5)"><g transform="translate(0 1.5)"><path class="a" d="M62.163,1.5H4.187A4.187,4.187,0,0,0,0,5.687V65.42a4.187,4.187,0,0,0,4.187,4.187H62.163A4.187,4.187,0,0,0,66.35,65.42V5.687A4.187,4.187,0,0,0,62.163,1.5Zm1.4,63.92a1.4,1.4,0,0,1-1.4,1.4H4.187a1.4,1.4,0,0,1-1.4-1.4V13.537H63.559Zm0-54.667H2.791V5.687a1.4,1.4,0,0,1,1.4-1.4H62.163a1.4,1.4,0,0,1,1.4,1.4Z" transform="translate(0 -1.5)"/><path class="a" d="M5.4,33.4H57.789a1.4,1.4,0,0,0,1.4-1.4V19.49a1.4,1.4,0,0,0-1.4-1.4H5.4A1.4,1.4,0,0,0,4,19.49V32.006A1.4,1.4,0,0,0,5.4,33.4Zm1.4-12.516h49.6V30.61H6.791Z" transform="translate(1.583 5.065)"/><circle class="a" cx="1.396" cy="1.396" r="1.396" transform="translate(6.978 4.624)"/><path class="a" d="M6.563,15.9h7.21a1.4,1.4,0,0,0,0-2.791H6.563a1.4,1.4,0,1,0,0,2.791Z" transform="translate(2.044 3.093)"/><path class="a" d="M37.563,15.9h7.21a1.4,1.4,0,0,0,0-2.791h-7.21a1.4,1.4,0,0,0,0,2.791Z" transform="translate(14.309 3.093)"/><path class="a" d="M27.229,15.9H34.44a1.4,1.4,0,0,0,0-2.791H27.229a1.4,1.4,0,0,0,0,2.791Z" transform="translate(10.22 3.093)"/><circle class="a" cx="1.396" cy="1.396" r="1.396" transform="translate(32.449 40.767)"/><circle class="a" cx="1.396" cy="1.396" r="1.396" transform="translate(27.075 40.767)"/><circle class="a" cx="1.396" cy="1.396" r="1.396" transform="translate(37.822 40.767)"/><path class="a" d="M5.4,51.025H34.176a1.4,1.4,0,0,0,1.4-1.4V35.753a1.4,1.4,0,0,0-1.4-1.4H5.4a1.4,1.4,0,0,0-1.4,1.4V49.629A1.4,1.4,0,0,0,5.4,51.025Zm1.4-13.87h25.99V48.234H6.791Z" transform="translate(1.583 11.499)"/></g><circle class="b" cx="20" cy="20" r="20" transform="translate(36 38.948)"/><path class="c" d="M32.726,25.621a1.161,1.161,0,0,1-1.161-1.161V18.094H20.412a3.483,3.483,0,0,0-3.483,3.483V66.163a3.483,3.483,0,0,0,3.483,3.483h47.68a3.483,3.483,0,0,0,3.483-3.483V25.621Zm29.631,23.7a2.338,2.338,0,0,1-2.4,2.322h-.508a15.635,15.635,0,0,1-1.636,3.976l.394.441a2.322,2.322,0,0,1,0,3.284l-2.386,2.386a2.337,2.337,0,0,1-3.339-.055l-.36-.36a15.673,15.673,0,0,1-3.969,1.653.056.056,0,0,0-.02.008l-.014.58A2.322,2.322,0,0,1,45.8,65.878H42.421a2.337,2.337,0,0,1-2.322-2.4v-.51a15.6,15.6,0,0,1-3.976-1.635l-.441.392a2.319,2.319,0,0,1-3.283,0l-2.386-2.38A2.338,2.338,0,0,1,30.069,56l.358-.358a15.69,15.69,0,0,1-1.65-3.971l-.593-.034a2.322,2.322,0,0,1-2.322-2.322V45.947a2.336,2.336,0,0,1,2.4-2.322h.511a15.663,15.663,0,0,1,1.633-3.976l-.392-.441a2.322,2.322,0,0,1,0-3.284L32.4,33.541a2.407,2.407,0,0,1,1.673-.673,2.431,2.431,0,0,1,1.665.727l.36.361A15.612,15.612,0,0,1,40.065,32.3l.035-.593a2.322,2.322,0,0,1,2.322-2.322H45.8a2.338,2.338,0,0,1,2.322,2.4v.51a15.684,15.684,0,0,1,3.976,1.635l.442-.392a2.322,2.322,0,0,1,3.283,0L58.2,35.926a2.338,2.338,0,0,1-.055,3.34l-.358.358a15.74,15.74,0,0,1,1.65,3.971l.593.034a2.322,2.322,0,0,1,2.322,2.322Z" transform="translate(12.222 11.777)"/><ellipse class="c" cx="7.843" cy="7.843" rx="7.843" ry="7.843" transform="translate(48.487 51.567)"/><path class="c" d="M31.536,18.094h18.58V23.3H31.536Z" transform="translate(14.572 11.777)"/><path class="c" d="M49.541,23.3H66.327V21.577a3.483,3.483,0,0,0-3.483-3.483h-13.3Z" transform="translate(17.47 11.777)"/></g></svg>