<svg id="plus" xmlns="http://www.w3.org/2000/svg" width="17.057" height="17.04" viewBox="0 0 17.057 17.04">
  <path id="Trazado_7235" data-name="Trazado 7235" d="M156,159.328a.668.668,0,0,0,.666.666h2v2a.666.666,0,1,0,1.331,0v-2h2a.666.666,0,0,0,0-1.331h-2v-2a.666.666,0,0,0-1.331,0v2h-2A.668.668,0,0,0,156,159.328Z" transform="translate(-150.808 -150.808)" fill="#3f3f3f"/>
  <path id="Trazado_7236" data-name="Trazado 7236" d="M13,134.921a.665.665,0,0,0,.869-.359l.356-.862a.665.665,0,1,0-1.228-.509l-.359.862A.664.664,0,0,0,13,134.921Z" transform="translate(-12.163 -128.362)" fill="#3f3f3f"/>
  <path id="Trazado_7237" data-name="Trazado 7237" d="M17.037,8.673a.585.585,0,0,0,.02-.153A8.515,8.515,0,0,0,8.537,0H8.513A8.507,8.507,0,0,0,5.878.423a.729.729,0,0,0-.186.047L4.829.825a.745.745,0,0,0-.173.1A8.7,8.7,0,0,0,3,2.037a.654.654,0,0,0-.18.126l-.656.662a.629.629,0,0,0-.13.186A8.465,8.465,0,0,0,.02,8.367.585.585,0,0,0,0,8.52a8.515,8.515,0,0,0,8.52,8.52h.023A8.513,8.513,0,0,0,17.037,8.673Zm-8.51,7.036A7.189,7.189,0,1,1,15.709,8.52,7.184,7.184,0,0,1,8.527,15.709Z" fill="#3f3f3f"/>
</svg>
