<svg id="icon-config" xmlns="http://www.w3.org/2000/svg" width="22.047" height="22.047" viewBox="0 0 22.047 22.047">
  <path id="Trazado_352" data-name="Trazado 352" d="M20.447,8.208l-1.075-.182c-.1-.266-.2-.528-.323-.782l.633-.886a1.918,1.918,0,0,0-.208-2.483L18.181,2.582A1.921,1.921,0,0,0,15.7,2.374l-.889.633a8.86,8.86,0,0,0-.835-.344L13.8,1.61A1.924,1.924,0,0,0,11.9,0H10.072a1.923,1.923,0,0,0-1.9,1.608L7.982,2.7q-.4.145-.779.328L6.33,2.4a1.927,1.927,0,0,0-2.487.207L2.548,3.9A1.924,1.924,0,0,0,2.34,6.384l.643.9c-.119.255-.225.518-.319.786L1.61,8.251A1.924,1.924,0,0,0,0,10.154v1.825a1.923,1.923,0,0,0,1.608,1.9l1.095.187c.1.264.206.524.328.779l-.626.871A1.918,1.918,0,0,0,2.613,18.2L3.9,19.495a1.921,1.921,0,0,0,2.479.208l.9-.643c.238.11.484.211.737.3L8.2,20.437a1.924,1.924,0,0,0,1.9,1.61h1.83a1.923,1.923,0,0,0,1.9-1.609l.182-1.075c.266-.1.528-.2.782-.323l.883.631a1.926,1.926,0,0,0,2.486-.206l1.292-1.292a1.924,1.924,0,0,0,.208-2.483l-.634-.89c.123-.26.231-.521.325-.781l1.074-.179a1.924,1.924,0,0,0,1.61-1.9V10.114A1.9,1.9,0,0,0,20.447,8.208Zm.308,3.728a.636.636,0,0,1-.531.629L18.8,12.8a.7.7,0,0,0-.554.484,7.553,7.553,0,0,1-.516,1.245.7.7,0,0,0,.051.729l.839,1.178a.636.636,0,0,1-.069.821l-1.292,1.292a.635.635,0,0,1-.82.07l-1.173-.839a.7.7,0,0,0-.732-.051,7.606,7.606,0,0,1-1.246.516.7.7,0,0,0-.48.55l-.242,1.426a.636.636,0,0,1-.629.532h-1.83a.636.636,0,0,1-.629-.531L9.24,18.8a.7.7,0,0,0-.479-.552,7.56,7.56,0,0,1-1.207-.5.7.7,0,0,0-.728.051l-1.194.85a.61.61,0,0,1-.364.117.623.623,0,0,1-.449-.188L3.524,17.287a.631.631,0,0,1-.069-.816l.834-1.16a.7.7,0,0,0,.05-.738,7.386,7.386,0,0,1-.523-1.24.7.7,0,0,0-.549-.478l-1.444-.246a.636.636,0,0,1-.532-.629V10.154a.636.636,0,0,1,.532-.629l1.407-.237A.7.7,0,0,0,3.784,8.8a7.447,7.447,0,0,1,.507-1.248.7.7,0,0,0-.051-.728L3.392,5.635a.635.635,0,0,1,.068-.82l1.3-1.292,0,0a.618.618,0,0,1,.445-.184.626.626,0,0,1,.368.117l1.165.839a.7.7,0,0,0,.738.049,7.384,7.384,0,0,1,1.239-.522A.7.7,0,0,0,9.2,3.267l.246-1.444a.636.636,0,0,1,.629-.532H11.9a.636.636,0,0,1,.629.532l.237,1.407a.7.7,0,0,0,.486.553,7.518,7.518,0,0,1,1.293.532.7.7,0,0,0,.73-.05l1.181-.841a.61.61,0,0,1,.364-.117.624.624,0,0,1,.449.188L18.562,4.79a.631.631,0,0,1,.068.817l-.84,1.175a.7.7,0,0,0-.05.731,7.6,7.6,0,0,1,.516,1.247.7.7,0,0,0,.55.48l1.424.242h0a.619.619,0,0,1,.523.62Zm0,0" fill="#3f3f3f"/>
  <path id="Trazado_353" data-name="Trazado 353" d="M161.3,156.453a4.849,4.849,0,1,0,4.849,4.849A4.854,4.854,0,0,0,161.3,156.453Zm0,8.236a3.388,3.388,0,1,1,3.387-3.387A3.391,3.391,0,0,1,161.3,164.689Zm0,0" transform="translate(-150.278 -150.278)" fill="#3f3f3f"/>
</svg>
