<?xml version="1.0" standalone="no"?>
<!DOCTYPE svg PUBLIC "-//W3C//DTD SVG 20010904//EN"
 "http://www.w3.org/TR/2001/REC-SVG-20010904/DTD/svg10.dtd">
<svg version="1.0" xmlns="http://www.w3.org/2000/svg"
 width="168.000000pt" height="162.000000pt" viewBox="0 0 168.000000 162.000000"
 preserveAspectRatio="xMidYMid meet">

<g transform="translate(0.000000,162.000000) scale(0.100000,-0.100000)"
fill="#000000" stroke="none">
<path d="M411 1529 c-54 -10 -108 -52 -138 -105 -23 -39 -23 -42 -23 -496 l0
-457 -36 -10 c-163 -45 -212 -237 -90 -349 66 -61 90 -63 567 -60 402 3 415 4
454 25 50 27 80 58 100 105 13 32 15 104 15 488 l0 450 93 0 c104 0 149 10
198 43 59 39 79 81 79 159 0 80 -23 134 -70 168 -68 48 -90 50 -614 49 -270
-1 -511 -5 -535 -10z m847 -66 c-43 -50 -43 -42 -48 -660 -5 -578 -5 -592 -26
-619 -33 -45 -70 -67 -121 -71 -91 -8 -163 56 -163 146 0 81 53 140 134 151
36 4 41 8 41 30 l0 25 -382 3 -383 2 0 454 0 453 23 33 c48 71 43 70 516 70
403 0 423 -1 409 -17z m251 -12 c48 -35 65 -76 62 -154 -1 -31 -63 -102 -98
-112 -20 -6 -22 -2 -25 47 l-3 53 -92 3 c-89 3 -93 4 -93 25 1 32 25 95 47
119 46 52 143 61 202 19z m-119 -246 c0 -24 -2 -25 -65 -25 -63 0 -65 1 -65
25 0 24 2 25 65 25 63 0 65 -1 65 -25z m-503 -813 c-60 -66 -60 -198 0 -264
15 -17 2 -18 -324 -18 -336 0 -340 0 -373 22 -99 68 -104 190 -11 254 l36 24
344 0 c330 0 343 -1 328 -18z"/>
<path d="M502 1221 c-8 -5 -12 -17 -10 -27 3 -18 17 -19 258 -19 241 0 255 1
258 19 2 10 -2 22 -10 27 -17 11 -479 11 -496 0z"/>
<path d="M490 975 l0 -25 260 0 260 0 0 25 0 25 -260 0 -260 0 0 -25z"/>
<path d="M494 765 c-4 -8 -4 -22 0 -30 5 -13 40 -15 258 -13 l253 3 0 25 0 25
-253 3 c-218 2 -253 0 -258 -13z"/>
</g>
</svg>
