<svg xmlns="http://www.w3.org/2000/svg" width="177.049" height="55.033" viewBox="0 0 177.049 55.033">
  <g id="Grupo_2830" data-name="Grupo 2830" transform="translate(-85.93 -187.027)">
    <g id="Grupo_2817" data-name="Grupo 2817" transform="translate(86.285 225.35)">
      <path id="Trazado_7528" data-name="Trazado 7528" d="M88.928,405.41c11.4-1.581,22.789-3.176,34.229-4.41q16.927-1.826,33.931-2.833c22.665-1.357,45.4-1.59,68.094-.78,12.788.457,25.572,1.087,38.329,2.091,1.392.11,1.356-2.009,0-2.152a594.92,594.92,0,0,0-68.763-3.229A678.9,678.9,0,0,0,126.4,398.27c-12.692,1.425-25.376,3.108-37.928,5.484-1.1.209-.61,1.8.457,1.657Z" transform="translate(-87.848 -394.061)" fill="#b92581"/>
    </g>
    <g id="Grupo_2819" data-name="Grupo 2819" transform="translate(157.673 187.027)">
      <g id="Grupo_2818" data-name="Grupo 2818" transform="translate(0 0)">
        <path id="Trazado_7529" data-name="Trazado 7529" d="M478.708,211.557c3.338-10.051,7.38-17.431,12.054-22.14a21.9,21.9,0,0,1,2.074-1.792,2.8,2.8,0,0,1,1.371-.6c.457,0,.949.352,1.441,1.019a1.628,1.628,0,0,1,.246.351,1.267,1.267,0,0,1,.07.387l-.035.351a19.884,19.884,0,0,1-.914,2.636c-.527,1.335-1.16,2.811-1.863,4.393-.738,1.581-1.406,2.987-2.038,4.217a53.832,53.832,0,0,1-4.112,6.5,58.589,58.589,0,0,1-5.025,6.079l-1.23,1.3-.773,2.319c-1.16,3.971-2.109,8.083-2.917,12.3a56.555,56.555,0,0,0-1.23,9.559,6.7,6.7,0,0,0,.141,1.617v.07a2.042,2.042,0,0,1,.105.492l.035.035v.035l.035.035c.141,0,.457-.422.914-1.3s.914-1.863,1.37-2.952a37.06,37.06,0,0,0,1.9-6.361,33.469,33.469,0,0,0,.633-6.29,21.613,21.613,0,0,0-.246-3.409,7.09,7.09,0,0,0-.738-2.425l-.035-.246a.262.262,0,0,1,.035-.176,2.046,2.046,0,0,1,.6-.141,9.935,9.935,0,0,1,1.054-.035,9.983,9.983,0,0,0,4.85-1.371c.422-.211.949-.527,1.617-.914.633-.387,1.23-.808,1.827-1.23a11.033,11.033,0,0,0,1.23-.914,1.6,1.6,0,0,1,.914-.422c.281,0,.457.211.492.632,0,.316-.527.844-1.546,1.652a22.794,22.794,0,0,1-3.549,2.249,9.188,9.188,0,0,1-4.6,1.265h-1.335a12.166,12.166,0,0,1,.808,2.5,19.914,19.914,0,0,1,.281,3.76,37.376,37.376,0,0,1-.6,6.4,32.593,32.593,0,0,1-1.828,6.291,18.01,18.01,0,0,1-1.792,3.76,2.056,2.056,0,0,1-1.546,1.019,6.22,6.22,0,0,1-1.16-.141,2.586,2.586,0,0,1-1.125-.457,3.292,3.292,0,0,1-.7-.914,2.141,2.141,0,0,1-.246-.843,14.374,14.374,0,0,1-.07-1.511c0-.316,0-.668-.035-1.054,0-4.006.949-9.734,2.811-17.15l1.335-5.306Zm4.533-2.6c.105-.141.246-.281.387-.457a58.743,58.743,0,0,0,9.664-16.763c.246-.562.422-.984.527-1.3a6.506,6.506,0,0,0,.211-.632c.035-.105.07-.246.105-.351l.035-.106-.351.316a21.553,21.553,0,0,0-2.46,2.776,44.808,44.808,0,0,0-2.706,3.831c-.6.949-1.265,2.214-2.073,3.8s-1.476,3.022-2.073,4.393a7.756,7.756,0,0,0-.316.738c-.281.633-.562,1.3-.879,2.038s-.562,1.406-.773,1.933a5.312,5.312,0,0,0-.351.879v.07A6.262,6.262,0,0,0,483.242,208.956Z" transform="translate(-473.507 -187.027)" fill="#222221"/>
        <path id="Trazado_7530" data-name="Trazado 7530" d="M560.919,304.34a8.8,8.8,0,0,1-2.495-2.319,3.011,3.011,0,0,1-.246-1.265,6.892,6.892,0,0,1,.492-2.354,17.154,17.154,0,0,1,2.179-4.674l.176-.035a1.921,1.921,0,0,1,1.23.843,1.022,1.022,0,0,1,.105.492,13.708,13.708,0,0,1-.808,2.952,22.539,22.539,0,0,0-.984,3.655v.633c2.109-.246,3.936-1.195,8.961-4.393a18.42,18.42,0,0,1,3.339-1.9.49.49,0,0,1,.527.492.522.522,0,0,1-.07.316,79.041,79.041,0,0,1-6.923,5.588,11.186,11.186,0,0,1-4.99,2.038A1.116,1.116,0,0,1,560.919,304.34Zm2.249-11.667a1.8,1.8,0,0,1-1.265-.808l-.035-.105a14.709,14.709,0,0,1,1.582-3.69c.176-.352.422-.422.879-.422a1.987,1.987,0,0,1,1.441.984v.035c0,.6-2,4.006-2.495,4.006Z" transform="translate(-542.505 -269.022)" fill="#222221"/>
        <path id="Trazado_7531" data-name="Trazado 7531" d="M626.866,299.734c-.7-.6-.914-.879-.914-1.335a39.724,39.724,0,0,1,1.616-6.642c1.265-3.409,3.444-8.188,3.971-8.715a.624.624,0,0,1,.351-.141,1.312,1.312,0,0,1,.914.6.835.835,0,0,1,.105.422c0,.562-.387,1.827-2,6.326a24.767,24.767,0,0,0-1.019,3.163c0,.07.035.105.07.105.211,0,.738-.562,1.652-1.476,3.163-3.163,5.518-4.639,7.345-4.639a2.766,2.766,0,0,1,1.651.492,5.082,5.082,0,0,1,2.214,3.022.469.469,0,0,1-.316.492l-.07.035c-.352,0-1.019-.808-1.019-1.195,0-.211-.281-.457-.457-.633a1.456,1.456,0,0,0-.808-.211,8.008,8.008,0,0,0-4.041,1.828,34.138,34.138,0,0,0-5.2,5.658c-2.144,3.233-2.6,3.76-2.882,3.76A2.546,2.546,0,0,1,626.866,299.734Z" transform="translate(-597.733 -265.154)" fill="#222221"/>
        <path id="Trazado_7532" data-name="Trazado 7532" d="M704.806,322.582c-.562-.457-1.019-.914-1.019-1.089,0-.7,5.482-9.418,6.115-9.7l.176-.035a2.059,2.059,0,0,1,1.265.949.829.829,0,0,1,.176.457,3.308,3.308,0,0,1-.527,1.23l-.633,1.265a26.574,26.574,0,0,1,3.409-2.355,3.073,3.073,0,0,1,1.23-.457,1.551,1.551,0,0,1,.492.105,4.042,4.042,0,0,1,1.16.914,1.667,1.667,0,0,1,.633,1.441,9.912,9.912,0,0,1-.176,1.511,3.352,3.352,0,0,0-.141.738l.035.176h.035a37.922,37.922,0,0,0,5.447-3.409c1.511-1.054,2.038-1.336,2.354-1.336a.652.652,0,0,1,.246.07,2.79,2.79,0,0,1,1.652,2.214l-.035.281a16.6,16.6,0,0,1-1.09,3.163,16.207,16.207,0,0,0-.879,2.636v.035h.035a14.732,14.732,0,0,0,3.022-1.16,25.5,25.5,0,0,0,4.85-3.409c.738-.738,1.16-1.09,1.441-1.09.176,0,.281.176.351.457l.07.422c0,.527-.316,1.019-1.23,2a18.922,18.922,0,0,1-5.236,3.971,4.813,4.813,0,0,1-2.5.808c-.914,0-1.089-.105-1.968-.914-.879-.738-1.3-1.265-1.3-2.144a12.118,12.118,0,0,1,1.195-3.971l.035-.07-.035-.035a3.368,3.368,0,0,0-.984.562c-1.617,1.335-5.2,3.409-5.763,3.409a4,4,0,0,1-2.319-1.968.981.981,0,0,1-.035-.352,9.25,9.25,0,0,1,.141-1.265l.176-1.089-.738.562a41.477,41.477,0,0,0-7.1,6.536,1.622,1.622,0,0,1-.879.808A4.569,4.569,0,0,1,704.806,322.582Z" transform="translate(-661.161 -288.669)" fill="#222221"/>
        <path id="Trazado_7533" data-name="Trazado 7533" d="M857.983,305.892c-1.09-.914-1.371-1.265-1.371-2.425,0-2.987,4.428-8.891,6.572-8.891,1.159,0,2.952,1.511,3.865,3.3l.457.984a14.347,14.347,0,0,0-.562,4.041v.281c0,.808.105.984.457.984l.211.035c.773,0,2.214-.879,4.006-2.355,1.3-1.019,10.113-8.935,10.464-8.935.246,0,.351.211.386.6,0,.527-8.25,8.232-9.69,9.778-2.039,2.144-2.952,2.776-4.042,2.776-.879,0-1.23-.176-2.425-1.16a4.536,4.536,0,0,1-1.16-1.441l-.246-.808c-2.319,2.249-3.76,3.725-5.236,3.866l-.351.035C858.861,306.56,858.65,306.419,857.983,305.892Zm5.728-5.377a13.883,13.883,0,0,0,2.073-3.163c0-.176-.984-.632-1.511-.632-1.441,0-4.955,4.674-5.412,7.274l-.07.738A21.99,21.99,0,0,0,863.711,300.516Z" transform="translate(-785.697 -273.315)" fill="#222221"/>
      </g>
    </g>
    <g id="Grupo_2822" data-name="Grupo 2822" transform="translate(207.409 232.397)">
      <g id="Grupo_2820" data-name="Grupo 2820" transform="translate(0 0)">
        <path id="Trazado_7534" data-name="Trazado 7534" d="M742.728,434.3l.013-.013a1.869,1.869,0,1,1-.547,1.322V432.4a.267.267,0,0,1,.534,0Zm1.335,2.643a1.333,1.333,0,1,0-.945-.391A1.285,1.285,0,0,0,744.063,436.941Z" transform="translate(-742.194 -432.129)" fill="#487fc9"/>
        <path id="Trazado_7535" data-name="Trazado 7535" d="M766.473,444.286l-1.281-3.077a.262.262,0,0,1-.03-.124.267.267,0,0,1,.267-.267.266.266,0,0,1,.19.077.3.3,0,0,1,.063.1l1.081,2.593L767.845,441a.282.282,0,0,1,.067-.1.255.255,0,0,1,.187-.077.267.267,0,0,1,.237.391l-1.989,4.772a.272.272,0,0,1-.063.1.266.266,0,0,1-.379,0,.267.267,0,0,1-.048-.312Z" transform="translate(-760.91 -439.21)" fill="#487fc9"/>
      </g>
      <g id="Grupo_2821" data-name="Grupo 2821" transform="translate(9.434 0.751)">
        <path id="Trazado_7536" data-name="Trazado 7536" d="M906.365,440.315h0l.053-.018a1.63,1.63,0,1,0-1.654-1.638V440.3h1.547Zm-2.454-1.656h0a2.454,2.454,0,1,1,2.454,2.511h-1.636v.455a.746.746,0,0,1-.818.6v-.564l.018-.054v-1.565a.167.167,0,0,1-.018.091v-.145a.235.235,0,0,1,.018-.109V438.8A.362.362,0,0,1,903.911,438.659Z" transform="translate(-883.41 -436.185)" fill="#487fc9"/>
        <path id="Trazado_7537" data-name="Trazado 7537" d="M793.993,438.659h0a1.652,1.652,0,0,0,1.6,1.656,1.648,1.648,0,0,0,.018-3.293h-.018A1.624,1.624,0,0,0,793.993,438.659Zm-.836,0h0a2.445,2.445,0,1,1,4.89,0,2.446,2.446,0,1,1-4.89,0Z" transform="translate(-793.157 -436.185)" fill="#487fc9"/>
        <path id="Trazado_7538" data-name="Trazado 7538" d="M822.55,436.381h0v2.511a2.575,2.575,0,0,0,2.1,2.383h1.76c0-.382-.391-.819-.658-.819h-1.014a1.793,1.793,0,0,1-1.369-1.547v-1.947C823.368,436.672,823.03,436.381,822.55,436.381Z" transform="translate(-817.109 -436.345)" fill="#487fc9"/>
        <path id="Trazado_7539" data-name="Trazado 7539" d="M845.715,436.185h0c-.48,0-.818.291-.818.564v1.8c0,.036-.018.073,0,.109v2.511c.463,0,.818-.291.818-.582v-4.4Z" transform="translate(-835.313 -436.185)" fill="#487fc9"/>
        <path id="Trazado_7540" data-name="Trazado 7540" d="M852.425,441.275h0v-2.529a2.536,2.536,0,0,1,2.1-2.365h.765a2.179,2.179,0,0,1,1.689,1.128,2.254,2.254,0,0,1,1.707-1.128h.622a2.553,2.553,0,0,1,2.116,2.365v2.529c-.48,0-.818-.309-.818-.582v-1.965a1.793,1.793,0,0,0-1.369-1.547h-.462a1.772,1.772,0,0,0-1.369,1.547v1.965a.068.068,0,0,1-.018.055v.528c-.48,0-.818-.309-.818-.582v-1.965a1.772,1.772,0,0,0-1.369-1.547h-.587a1.793,1.793,0,0,0-1.369,1.547v1.965C853.243,440.966,852.887,441.275,852.425,441.275Z" transform="translate(-841.454 -436.345)" fill="#487fc9"/>
        <path id="Trazado_7541" data-name="Trazado 7541" d="M933.4,436.381h0c.479,0,.818.291.818.582v4.421c-.462,0-.818-.309-.818-.6v-4.4Z" transform="translate(-907.443 -436.345)" fill="#487fc9"/>
        <path id="Trazado_7542" data-name="Trazado 7542" d="M943.255,440.315h0l.054-.018h1.545v-1.638a1.6,1.6,0,1,0-3.2,0A1.6,1.6,0,0,0,943.2,440.3Zm2.455-1.656h0a.344.344,0,0,1-.019.146v1.055a.3.3,0,0,1,.019.127v.145a.16.16,0,0,1-.019-.091v1.128h-2.436a2.487,2.487,0,0,1-2.453-2.511,2.454,2.454,0,1,1,4.908,0Z" transform="translate(-913.472 -436.185)" fill="#487fc9"/>
      </g>
    </g>
    <g id="Grupo_2826" data-name="Grupo 2826" transform="translate(85.93 202.295)">
      <g id="Grupo_2824" data-name="Grupo 2824" transform="translate(59.655 2.369)">
        <g id="Grupo_2823" data-name="Grupo 2823" transform="translate(0)">
          <path id="Trazado_7543" data-name="Trazado 7543" d="M410.945,299a8.8,8.8,0,0,1-2.5-2.32,3.009,3.009,0,0,1-.246-1.265,6.893,6.893,0,0,1,.492-2.354,17.15,17.15,0,0,1,2.179-4.674l.176-.035a1.92,1.92,0,0,1,1.23.844,1.019,1.019,0,0,1,.105.492,13.7,13.7,0,0,1-.808,2.952,22.549,22.549,0,0,0-.984,3.655v.633c2.109-.246,3.936-1.2,8.961-4.393a18.419,18.419,0,0,1,3.339-1.9.49.49,0,0,1,.527.492.522.522,0,0,1-.07.316,79.065,79.065,0,0,1-6.923,5.588,11.186,11.186,0,0,1-4.99,2.038A1.116,1.116,0,0,1,410.945,299Zm2.249-11.667a1.8,1.8,0,0,1-1.265-.808l-.035-.105a14.708,14.708,0,0,1,1.581-3.69c.176-.351.422-.422.879-.422a1.987,1.987,0,0,1,1.441.984v.035c0,.6-2,4.006-2.495,4.006Z" transform="translate(-408.204 -282.306)" fill="#ba2081"/>
        </g>
      </g>
      <g id="Grupo_2825" data-name="Grupo 2825">
        <path id="Trazado_7544" data-name="Trazado 7544" d="M88.05,292.022c-1.169-.951-2.12-1.9-2.12-2.266,0-1.462,11.4-19.591,12.72-20.176l.366-.073a4.281,4.281,0,0,1,2.632,1.974,1.721,1.721,0,0,1,.366.95,6.885,6.885,0,0,1-1.1,2.558L99.6,277.621a55.3,55.3,0,0,1,7.091-4.9,6.394,6.394,0,0,1,2.559-.95,3.221,3.221,0,0,1,1.023.219,8.391,8.391,0,0,1,2.412,1.9,3.466,3.466,0,0,1,1.316,3,20.621,20.621,0,0,1-.365,3.143,6.977,6.977,0,0,0-.292,1.535l.073.366h.073c.512,0,5.629-3.07,11.331-7.091,3.143-2.193,4.24-2.778,4.9-2.778a1.358,1.358,0,0,1,.512.146c2.12,1.17,3.436,2.924,3.436,4.606l-.073.585c0,.8-1.1,3.728-2.266,6.579a33.7,33.7,0,0,0-1.828,5.483v.073h.073a30.672,30.672,0,0,0,6.287-2.412,53.055,53.055,0,0,0,10.088-7.091c1.535-1.535,2.412-2.266,3-2.266.365,0,.585.366.731.951l.146.877c0,1.1-.658,2.12-2.559,4.167a39.365,39.365,0,0,1-10.892,8.261c-2.559,1.316-3.509,1.681-5.19,1.681-1.9,0-2.266-.219-4.094-1.9-1.827-1.535-2.7-2.632-2.7-4.459,0-1.754.8-4.167,2.485-8.261l.073-.146-.073-.073a6.987,6.987,0,0,0-2.047,1.17c-3.363,2.778-10.819,7.091-11.989,7.091-1.243,0-4.605-2.778-4.825-4.094a2.037,2.037,0,0,1-.073-.731,19.232,19.232,0,0,1,.292-2.632l.365-2.266-1.535,1.17a86.24,86.24,0,0,0-14.766,13.6,3.373,3.373,0,0,1-1.828,1.681A9.483,9.483,0,0,1,88.05,292.022Z" transform="translate(-85.93 -269.507)" fill="#ba2081"/>
      </g>
    </g>
    <g id="Grupo_2829" data-name="Grupo 2829" transform="translate(253.725 206.183)">
      <g id="Grupo_2827" data-name="Grupo 2827" transform="translate(0.329 0.478)">
        <path id="Trazado_7545" data-name="Trazado 7545" d="M994.188,303.285l.295-9.975s-.021-.508,1.068.031l6.1,6.408s.891.7-.03,1.008l-2.713-.634,1.4,3.343s.647,1.355-.513,1.3l-1.588.715-.993-1.5-.274-1.618-.293-.8-1.713,1.748Z" transform="translate(-994.188 -293.093)" fill="#fff"/>
      </g>
      <g id="Grupo_2828" data-name="Grupo 2828" transform="translate(0 0)">
        <path id="Trazado_7546" data-name="Trazado 7546" d="M993.3,291.319a.157.157,0,0,1,.1.054l6.755,6.531c.1.095.067.174-.07.174l-2.726.012a.154.154,0,0,0-.151.23l1.465,3.44a.25.25,0,0,1-.132.326l-1.19.507a.244.244,0,0,1-.1.02.249.249,0,0,1-.23-.151l-1.46-3.429a.162.162,0,0,0-.145-.112.179.179,0,0,0-.127.061l-1.9,1.947a.155.155,0,0,1-.1.057c-.044,0-.073-.045-.073-.128l.005-9.411c0-.084.031-.13.077-.13m0-.807a.892.892,0,0,0-.884.935l-.005,9.411a.889.889,0,0,0,.88.935.95.95,0,0,0,.679-.3l1.229-1.259,1.084,2.545a1.055,1.055,0,0,0,.972.642,1.043,1.043,0,0,0,.416-.086l1.187-.506a1.058,1.058,0,0,0,.559-1.384l-1.087-2.553,1.761-.008a.89.89,0,0,0,.627-1.562l-6.754-6.53a.954.954,0,0,0-.663-.281Z" transform="translate(-992.409 -290.512)"/>
      </g>
    </g>
  </g>
</svg>
