<svg xmlns="http://www.w3.org/2000/svg" width="19.792" height="16.526" viewBox="0 0 19.792 16.526"><defs><style>.a{fill:#3f9f82;}</style></defs><path class="a" d="M176.618,16.526a.619.619,0,0,1-.618-.619V.619a.619.619,0,0,1,1.237,0V15.908A.619.619,0,0,1,176.618,16.526Zm0,0" transform="translate(-169.196)"/><path class="a" d="M14.226,3.3a.619.619,0,0,1-.619-.619V1.237H1.237V2.684A.619.619,0,1,1,0,2.684V.619A.619.619,0,0,1,.619,0H14.226a.619.619,0,0,1,.619.619V2.684A.619.619,0,0,1,14.226,3.3Zm0,0"/><path class="a" d="M132.33,396.757h-3.711a.618.618,0,1,1,0-1.237h3.711a.618.618,0,1,1,0,1.237Zm0,0" transform="translate(-123.052 -380.23)"/><path class="a" d="M299.286,195.09a.619.619,0,0,1-.618-.618v-1.446a.619.619,0,0,1,.618-.618h7.01a.619.619,0,0,1,.618.618v1.239a.618.618,0,1,1-1.237,0v-.621H299.9v.828A.619.619,0,0,1,299.286,195.09Zm0,0" transform="translate(-287.123 -184.969)"/><path class="a" d="M389.951,201.495a.619.619,0,0,1-.619-.619v-7.852a.619.619,0,0,1,1.237,0v7.852A.619.619,0,0,1,389.951,201.495Zm0,0" transform="translate(-374.282 -184.969)"/><path class="a" d="M365.348,396.757h-2.062a.618.618,0,1,1,0-1.237h2.062a.618.618,0,1,1,0,1.237Zm0,0" transform="translate(-348.649 -380.23)"/></svg>