<svg xmlns="http://www.w3.org/2000/svg" width="16.625" height="16.625" viewBox="0 0 16.625 16.625"><defs><style>.a{fill:#c8c8c8;}</style></defs><path class="a" d="M8.312,0a8.313,8.313,0,1,0,8.313,8.312A8.313,8.313,0,0,0,8.312,0Zm1.73,12.883q-.642.253-1.024.386a2.7,2.7,0,0,1-.888.133,1.77,1.77,0,0,1-1.208-.379,1.224,1.224,0,0,1-.43-.962,3.494,3.494,0,0,1,.032-.464c.022-.158.056-.335.1-.534l.536-1.892c.047-.182.088-.354.12-.514a2.281,2.281,0,0,0,.048-.445.686.686,0,0,0-.149-.5.847.847,0,0,0-.572-.141,1.5,1.5,0,0,0-.426.063c-.144.044-.27.084-.372.124l.141-.583Q6.479,6.955,6.96,6.8a2.973,2.973,0,0,1,.908-.153,1.737,1.737,0,0,1,1.191.373,1.239,1.239,0,0,1,.418.968q0,.123-.029.434A2.905,2.905,0,0,1,9.34,9l-.533,1.886c-.044.151-.082.324-.118.518a2.739,2.739,0,0,0-.051.441.633.633,0,0,0,.168.512.941.941,0,0,0,.582.137,1.688,1.688,0,0,0,.441-.068,2.5,2.5,0,0,0,.356-.12ZM9.948,5.228a1.271,1.271,0,0,1-.9.346,1.285,1.285,0,0,1-.9-.346,1.105,1.105,0,0,1-.375-.84,1.116,1.116,0,0,1,.375-.842,1.275,1.275,0,0,1,.9-.35,1.261,1.261,0,0,1,.9.35,1.134,1.134,0,0,1,0,1.681Z"/></svg>