<svg xmlns="http://www.w3.org/2000/svg" width="23.907" height="23.907" viewBox="0 0 23.907 23.907"><defs><style>.a{fill:#707070;}</style></defs><path class="a" d="M251.23,0l-.808.808a5.976,5.976,0,0,0-1.12,1.553l-.854,1.708,7.677,7.677,1.708-.854a5.98,5.98,0,0,0,1.553-1.12l.808-.808L251.23,0Z" transform="translate(-236.288 0)"/><path class="a" d="M9.956,124.473a8.094,8.094,0,0,1-5.473,1.379L0,142.288l16.436-4.483a8.094,8.094,0,0,1,1.379-5.473l-7.859-7.859ZM8.218,136.311a2.241,2.241,0,1,1,2.241-2.241,2.241,2.241,0,0,1-2.241,2.241Z" transform="translate(0 -118.381)"/></svg>