<svg xmlns="http://www.w3.org/2000/svg" width="15.625" height="21.388" viewBox="0 0 15.625 21.388"><defs><style>.a{fill:#c8c8c8;}</style></defs><g transform="translate(496.082 -164.823)"><g transform="translate(-496.082 164.823)"><path class="a" d="M-483.745,233.033q0,4.086,0,8.173c0,.711-.3,1.01-1.017,1.01h-10.355a.844.844,0,0,1-.963-.958q0-8.211,0-16.423c0-.666.306-.969.977-.969q5.216,0,10.432,0a.833.833,0,0,1,.86.521,1.225,1.225,0,0,1,.063.453q.005,4.1,0,8.2Z" transform="translate(496.082 -220.827)"/><path class="a" d="M-421.435,166.47h-2.442q-3.674,0-7.348,0a.825.825,0,0,1-.846-1.115.814.814,0,0,1,.778-.528c.445-.006.891,0,1.336,0h9.2a.846.846,0,0,1,.968.954q0,8.236,0,16.472a.83.83,0,0,1-1.1.874.831.831,0,0,1-.547-.842q0-2,0-4.009,0-5.769,0-11.538Z" transform="translate(435.415 -164.823)"/></g></g></svg>