<svg xmlns="http://www.w3.org/2000/svg" width="20.933" height="20.933" viewBox="0 0 20.933 20.933"><defs><style>.a{fill:#c8c8c8;}</style></defs><g transform="translate(0 0)"><g transform="translate(0 0)"><path class="a" d="M20.8,10.158,17.752,7.105a.436.436,0,0,0-.744.308V8.722a.436.436,0,0,0,.128.308l.564.564H11.338V3.233L11.9,3.8a.436.436,0,0,0,.308.128h1.308a.436.436,0,0,0,.308-.744L10.775.128a.436.436,0,0,0-.617,0L7.105,3.18a.436.436,0,0,0,.308.744H8.722A.436.436,0,0,0,9.03,3.8l.564-.564V9.594H3.233L3.8,9.03a.436.436,0,0,0,.128-.308V7.413a.436.436,0,0,0-.744-.308L.128,10.158a.436.436,0,0,0,0,.617L3.18,13.827a.436.436,0,0,0,.308.128.43.43,0,0,0,.167-.033.436.436,0,0,0,.269-.4V12.211A.436.436,0,0,0,3.8,11.9l-.564-.564H9.594V17.7l-.564-.564a.436.436,0,0,0-.308-.128H7.413a.436.436,0,0,0-.308.744L10.158,20.8a.436.436,0,0,0,.617,0l3.053-3.053a.436.436,0,0,0-.308-.744H12.211a.436.436,0,0,0-.308.128l-.564.564V11.338H17.7l-.564.564a.436.436,0,0,0-.128.308v1.308a.436.436,0,0,0,.269.4.431.431,0,0,0,.167.033.436.436,0,0,0,.308-.128L20.8,10.775A.436.436,0,0,0,20.8,10.158Z" transform="translate(0 0)"/></g></g></svg>